:SAMPLES-PER-SECOND 30
:FULLY-SPECIFIED
:DEGREES
1566
root  17.4792 40.1669 13.4479 -111.939 87.3969 -106.912
RightUpLeg  7.79409 -9.57234 -3.71717
RightLeg  10.5016 -12.3304 2.59065
RightFoot  -9.5447 -0.0649499 0.0180941
RightToes  0.000481921 0.542163 -0.142578
Spine  -9.51 -2.10212 2.57908
Spine1  15.9872 -4.80791 8.35429
HEad  -0.881119 5.26207 0.054812
LeftShoulder1  10.0406 -13.5033 -51.5201
LeftArm  -5.50841 15.1506 -18.3124
LeftForeArm  20.4818 -7.84152 -7.06572
LeftHand  -0.25398 0.0180481 5.50724
RightShoulder  5.44126 8.45261 39.4018
RightArm  -13.4504 -21.8369 27.1108
RightForeArm  -14.874 6.48802 6.58983
RightHand  -2.8756 9.97277 -21.9266
LeftUpLeg  11.2475 11.1075 20.3841
LeftLeg  -1.08698 7.50728 -2.05544
LeftFoot  2.20932 1.60305 -13.556
LeftToes  1.06245e-005 4.65869e-005 -8.65517e-006
1567
root  17.4623 40.0955 13.7948 -114.831 87.009 -109.186
RightUpLeg  8.15039 -9.61097 -2.94049
RightLeg  11.2423 -12.6617 2.54199
RightFoot  -10.1372 -0.0632977 -0.508703
RightToes  0.000481921 0.542163 -0.142578
Spine  -9.65181 -2.46732 2.37583
Spine1  16.2992 -5.45532 9.44952
HEad  0.757261 5.67722 -1.06593
LeftShoulder1  10.1123 -13.7398 -51.1838
LeftArm  -6.50394 7.45959 -18.4872
LeftForeArm  20.2151 -9.11237 -7.03533
LeftHand  -0.25398 0.0180481 5.50724
RightShoulder  5.76694 8.91651 40.2788
RightArm  -11.689 -13.9926 27.0328
RightForeArm  -12.6584 6.90342 7.2847
RightHand  -2.95823 10.3623 -21.9996
LeftUpLeg  11.4384 11.3123 21.3937
LeftLeg  -0.551882 6.66363 -1.67493
LeftFoot  2.24853 1.67235 -14.0931
LeftToes  1.06245e-005 4.65869e-005 -8.65517e-006
1568
root  17.432 40.0204 14.1278 -120.196 86.6613 -114.052
RightUpLeg  8.31654 -9.75672 -2.30246
RightLeg  12.0987 -13.0415 2.45626
RightFoot  -10.7605 -0.0678794 -0.974796
RightToes  0.000481921 0.542163 -0.142578
Spine  -9.53556 -2.77933 2.41773
Spine1  16.3672 -5.91629 10.2077
HEad  1.95053 6.28977 -2.45319
LeftShoulder1  10.1455 -13.9793 -50.6577
LeftArm  -6.87641 0.165904 -18.9402
LeftForeArm  19.4992 -11.1589 -6.80675
LeftHand  -0.25398 0.0180481 5.50724
RightShoulder  5.99162 9.30916 40.5911
RightArm  -9.87251 -6.64966 27.8556
RightForeArm  -10.5715 7.90797 7.92832
RightHand  -2.95454 10.3111 -22.0416
LeftUpLeg  11.1406 11.5424 22.1972
LeftLeg  0.503269 5.86906 -1.25505
LeftFoot  2.25816 1.73226 -14.5788
LeftToes  1.06245e-005 4.65869e-005 -8.65517e-006
1569
root  17.3879 39.9514 14.4407 -127.798 86.3848 -121.274
RightUpLeg  8.3243 -9.99582 -1.88539
RightLeg  12.9799 -13.4612 2.33017
RightFoot  -11.3715 -0.0772723 -1.37575
RightToes  0.000481921 0.542163 -0.142578
Spine  -9.11845 -2.96936 2.81216
Spine1  16.2741 -6.05697 10.3567
HEad  2.24536 6.93105 -3.92122
LeftShoulder1  10.1369 -14.2607 -49.821
LeftArm  -6.16135 -6.5265 -19.824
LeftForeArm  17.6827 -14.1223 -6.1943
LeftHand  -0.25398 0.0180481 5.50724
RightShoulder  6.15371 9.7141 40.3964
RightArm  -6.94269 -0.349689 29.3813
RightForeArm  -10.0796 10.0653 8.4246
RightHand  -2.91898 10.0755 -22.1026
LeftUpLeg  10.3501 11.9097 22.6957
LeftLeg  2.1021 5.36156 -0.777336
LeftFoot  2.39218 1.77567 -14.7991
LeftToes  1.06245e-005 4.65869e-005 -8.65517e-006
1570
root  17.3318 39.8903 14.7268 -136.908 86.078 -130.094
RightUpLeg  8.23535 -10.2395 -1.63587
RightLeg  13.8118 -13.9843 2.18206
RightFoot  -11.92 -0.0892615 -1.71432
RightToes  0.000481921 0.542163 -0.142578
Spine  -8.4041 -3.0092 3.66767
Spine1  16.1197 -5.84096 9.84164
HEad  1.59299 7.44569 -5.35984
LeftShoulder1  10.0816 -14.571 -48.6983
LeftArm  -4.80019 -12.495 -21.1861
LeftForeArm  16.1066 -18.064 -5.0395
LeftHand  -0.25398 0.0180481 5.50724
RightShoulder  6.25345 10.0859 39.8846
RightArm  -1.79799 4.79752 31.2013
RightForeArm  -12.6587 13.5503 8.31962
RightHand  -2.94606 10.0586 -22.3208
LeftUpLeg  9.10817 12.3642 22.9042
LeftLeg  4.1869 4.96312 -0.1809
LeftFoot  2.64885 1.8528 -15.158
LeftToes  1.06245e-005 4.65869e-005 -8.65517e-006
1571
root  17.2675 39.8319 14.9793 -146.159 85.6728 -139.095
RightUpLeg  8.11009 -10.4726 -1.53391
RightLeg  14.6304 -14.58 2.04389
RightFoot  -12.4132 -0.102456 -1.98048
RightToes  0.000481921 0.542163 -0.142578
Spine  -7.3307 -2.94116 4.90457
Spine1  15.877 -5.34395 8.85485
HEad  0.242134 7.98605 -6.85214
LeftShoulder1  10.0094 -14.8454 -47.6134
LeftArm  -5.1607 -17.5281 -22.6109
LeftForeArm  18.7746 -23.2492 -4.09846
LeftHand  -0.25398 0.0180481 5.50724
RightShoulder  6.24947 10.3096 39.1474
RightArm  4.48042 8.94499 33.0653
RightForeArm  -17.0422 17.9001 7.2346
RightHand  -3.00302 10.2088 -22.5259
LeftUpLeg  7.46473 12.6857 22.8597
LeftLeg  6.7565 4.72088 0.510229
LeftFoot  3.10609 2.0231 -16.0173
LeftToes  1.06245e-005 4.65869e-005 -8.65517e-006
1572
root  17.1997 39.778 15.1974 -154.818 85.2991 -147.505
RightUpLeg  7.96469 -10.7112 -1.65025
RightLeg  15.4984 -15.081 1.87845
RightFoot  -12.9066 -0.115967 -2.1042
RightToes  0.000481921 0.542163 -0.142578
Spine  -5.90378 -2.80816 6.24573
Spine1  15.4952 -4.6559 7.59022
HEad  -1.61248 8.7845 -8.52347
LeftShoulder1  9.9523 -15.0337 -46.8454
LeftArm  -8.85217 -21.488 -23.6033
LeftForeArm  26.6072 -29.4708 -4.91726
LeftHand  -0.25398 0.0180481 5.50724
RightShoulder  6.15017 10.3964 38.1926
RightArm  8.42751 12.2073 34.7804
RightForeArm  -18.985 22.3188 6.0828
RightHand  -2.95811 10.0799 -22.3779
LeftUpLeg  5.46923 12.8509 22.5189
LeftLeg  9.93828 5.35564 1.2903
LeftFoot  4.00102 2.18957 -16.3513
LeftToes  1.06245e-005 4.65869e-005 -8.65517e-006
1573
root  17.1398 39.7491 15.3905 -163.226 85.0349 -155.751
RightUpLeg  7.80144 -10.8586 -1.92007
RightLeg  16.1921 -15.495 1.64286
RightFoot  -13.328 -0.125812 -2.06044
RightToes  0.000481921 0.542163 -0.142578
Spine  -4.30325 -2.62376 7.5141
Spine1  14.9851 -3.86869 6.21101
HEad  -3.69473 9.70596 -10.3138
LeftShoulder1  9.89578 -15.1527 -46.267
LeftArm  -10.9507 -24.5142 -24.422
LeftForeArm  30.5286 -35.2029 -6.10747
LeftHand  -0.25398 0.0180481 5.50724
RightShoulder  6.02984 10.4694 37.1392
RightArm  8.05452 14.5453 36.0055
RightForeArm  -16.0242 26.4466 6.42161
RightHand  -2.79745 9.5255 -21.9638
LeftUpLeg  3.162 13.0858 21.7948
LeftLeg  13.6014 7.04675 2.27855
LeftFoot  5.26205 2.10754 -14.6163
LeftToes  1.06245e-005 4.65869e-005 -8.65517e-006
1574
root  17.1029 39.7469 15.5585 -171.34 84.669 -163.898
RightUpLeg  7.58394 -10.8215 -2.17847
RightLeg  16.5766 -16.0967 1.34792
RightFoot  -13.6063 -0.13003 -1.92296
RightToes  0.000481921 0.542163 -0.142578
Spine  -2.84174 -2.42362 8.57893
Spine1  14.3263 -3.14729 4.99277
HEad  -5.43531 10.3738 -12.0185
LeftShoulder1  9.80255 -15.2402 -45.5953
LeftArm  -11.1319 -26.8652 -25.422
LeftForeArm  28.0118 -38.0211 -7.01797
LeftHand  -0.25398 0.0180481 5.50724
RightShoulder  5.94884 10.5834 36.2402
RightArm  7.0993 15.8718 36.504
RightForeArm  -12.5084 30.5164 7.32204
RightHand  -2.67192 9.01074 -21.7335
LeftUpLeg  0.474266 13.3187 20.618
LeftLeg  17.4799 8.46302 3.28167
LeftFoot  5.96856 1.68324 -11.2518
LeftToes  1.06245e-005 4.65869e-005 -8.65517e-006
1575
root  17.0989 39.7598 15.6963 -178.067 83.931 -170.863
RightUpLeg  7.35954 -10.726 -2.37704
RightLeg  16.6498 -17.0389 1.09289
RightFoot  -13.7203 -0.130058 -1.79485
RightToes  0.000481921 0.542163 -0.142578
Spine  -1.68951 -2.2685 9.29526
Spine1  13.5846 -2.67877 4.27464
HEad  -6.40072 10.708 -13.527
LeftShoulder1  9.68007 -15.2861 -44.8881
LeftArm  -10.1965 -28.6111 -26.6257
LeftForeArm  23.3098 -37.4686 -7.1608
LeftHand  -0.25398 0.0180481 5.50724
RightShoulder  5.90336 10.6725 35.6669
RightArm  6.67396 16.3492 36.1796
RightForeArm  -9.98341 34.2941 8.2204
RightHand  -2.65207 8.91287 -21.7185
LeftUpLeg  -2.51903 13.6037 19.0048
LeftLeg  21.0865 7.94074 3.66735
LeftFoot  5.31472 1.24007 -8.67685
LeftToes  1.06245e-005 4.65869e-005 -8.65517e-006
1576
root  17.1237 39.7801 15.805 177.039 82.8896 -176.114
RightUpLeg  7.17825 -10.7591 -2.61618
RightLeg  16.536 -18.0811 0.924117
RightFoot  -13.7511 -0.127798 -1.65508
RightToes  0.000481921 0.542163 -0.142578
Spine  -0.77591 -2.17295 9.62848
Spine1  12.9176 -2.46995 4.03069
HEad  -6.82743 11.1027 -14.885
LeftShoulder1  9.59036 -15.2628 -44.5113
LeftArm  -9.03412 -29.5588 -27.501
LeftForeArm  22.2797 -35.1524 -6.58703
LeftHand  -0.25398 0.0180481 5.50724
RightShoulder  5.86461 10.674 35.395
RightArm  6.50871 16.2498 35.3411
RightForeArm  -7.95299 37.4154 9.03853
RightHand  -2.62553 8.89811 -21.5307
LeftUpLeg  -5.51469 14.2635 17.0086
LeftLeg  23.9242 6.05563 3.25047
LeftFoot  3.71785 1.05597 -8.1642
LeftToes  1.06245e-005 4.65869e-005 -8.65517e-006
